<?xml version="1.0" standalone="no"?>
<!DOCTYPE svg PUBLIC "-//W3C//DTD SVG 20010904//EN"
 "http://www.w3.org/TR/2001/REC-SVG-20010904/DTD/svg10.dtd">
<svg version="1.0" xmlns="http://www.w3.org/2000/svg"
 width="3280.000000pt" height="4720.000000pt" viewBox="0 0 3280.000000 4720.000000"
 preserveAspectRatio="xMidYMid meet">

<g transform="translate(0.000000,4720.000000) scale(0.100000,-0.100000)"
fill="#000000" stroke="none">
<path d="M22685 28845 c-2678 -2934 -4871 -5338 -4873 -5343 -3 -10 4682
-4292 4697 -4292 10 0 9746 10659 9746 10670 0 4 -965 888 -2145 1965 -1180
1077 -2234 2042 -2343 2144 -109 102 -201 187 -205 188 -4 1 -2198 -2398
-4877 -5332z"/>
<path d="M4398 30782 c-595 -653 -964 -1067 -1051 -1177 -652 -832 -1044
-1369 -1230 -1685 -30 -52 -98 -190 -150 -305 -52 -116 -185 -406 -294 -645
-110 -239 -232 -516 -271 -615 -307 -787 -546 -1892 -614 -2845 -16 -226 -16
-1269 1 -1560 61 -1097 269 -2028 694 -3100 670 -1695 1663 -3087 3042 -4265
460 -393 811 -648 1220 -887 814 -477 1148 -647 1685 -861 596 -237 1040 -382
1515 -497 1093 -264 2195 -328 3520 -205 581 55 953 127 1797 350 666 177
1761 602 2330 906 349 187 522 307 1043 724 842 673 1392 1154 1551 1355 32
42 455 509 939 1039 484 529 881 966 883 971 2 4 -1004 927 -2235 2051 -1231
1124 -2296 2098 -2368 2166 -71 68 -135 122 -141 121 -6 -2 -416 -446 -911
-988 -905 -990 -1155 -1251 -1358 -1414 -211 -169 -554 -385 -820 -516 -380
-187 -901 -332 -1375 -382 -167 -17 -738 -17 -885 0 -697 83 -1407 353 -1942
738 -341 245 -625 509 -849 790 -218 274 -375 519 -503 787 -218 454 -332 838
-408 1367 -25 179 -25 733 0 940 51 411 143 788 268 1091 144 350 382 762 594
1025 144 178 173 210 1103 1228 492 538 892 979 890 980 -2 2 -1069 976 -2371
2165 -1302 1188 -2371 2161 -2375 2160 -4 0 -420 -453 -924 -1007z"/>
</g>
</svg>
